<?xml version="1.0" encoding="UTF-8" standalone="no"?>
<!-- Created with Inkscape (http://www.inkscape.org/) -->

<svg
   width="210mm"
   height="297mm"
   viewBox="0 0 210 297"
   version="1.1"
   id="svg5"
   xml:space="preserve"
   inkscape:version="1.2.1 (9c6d41e410, 2022-07-14)"
   sodipodi:docname="pierre-atividade.svg"
   inkscape:export-filename="pierre-atividade.png"
   inkscape:export-xdpi="300"
   inkscape:export-ydpi="300"
   xmlns:inkscape="http://www.inkscape.org/namespaces/inkscape"
   xmlns:sodipodi="http://sodipodi.sourceforge.net/DTD/sodipodi-0.dtd"
   xmlns="http://www.w3.org/2000/svg"
   xmlns:svg="http://www.w3.org/2000/svg"><sodipodi:namedview
     id="namedview7"
     pagecolor="#ffffff"
     bordercolor="#000000"
     borderopacity="0.25"
     inkscape:showpageshadow="2"
     inkscape:pageopacity="0.0"
     inkscape:pagecheckerboard="0"
     inkscape:deskcolor="#d1d1d1"
     inkscape:document-units="mm"
     showgrid="false"
     inkscape:zoom="0.46769782"
     inkscape:cx="143.25489"
     inkscape:cy="286.50978"
     inkscape:window-width="1366"
     inkscape:window-height="705"
     inkscape:window-x="-8"
     inkscape:window-y="-8"
     inkscape:window-maximized="1"
     inkscape:current-layer="layer1" /><defs
     id="defs2"><filter
       style="color-interpolation-filters:sRGB;"
       inkscape:label="Colorize"
       id="filter1187"
       x="-0.043860524"
       y="-0.19481138"
       width="1.087721"
       height="1.3896228"><feComposite
         in2="SourceGraphic"
         operator="arithmetic"
         k1="0"
         k2="1"
         result="composite1"
         id="feComposite1173" /><feColorMatrix
         in="composite1"
         values="1"
         type="saturate"
         result="colormatrix1"
         id="feColorMatrix1175" /><feFlood
         flood-opacity="1"
         flood-color="rgb(139,19,91)"
         result="flood1"
         id="feFlood1177" /><feBlend
         in="flood1"
         in2="colormatrix1"
         mode="multiply"
         result="blend1"
         id="feBlend1179" /><feBlend
         in2="blend1"
         mode="screen"
         result="blend2"
         id="feBlend1181" /><feColorMatrix
         in="blend2"
         values="1"
         type="saturate"
         result="colormatrix2"
         id="feColorMatrix1183" /><feComposite
         in="colormatrix2"
         in2="SourceGraphic"
         operator="in"
         k2="1"
         result="fbSourceGraphic"
         id="feComposite1185" /><feColorMatrix
         result="fbSourceGraphicAlpha"
         in="fbSourceGraphic"
         values="0 0 0 -1 0 0 0 0 -1 0 0 0 0 -1 0 0 0 0 1 0"
         id="feColorMatrix1189" /><feComposite
         in2="fbSourceGraphic"
         id="feComposite1191"
         operator="arithmetic"
         k1="0"
         k2="1"
         result="composite1"
         in="fbSourceGraphic" /><feColorMatrix
         id="feColorMatrix1193"
         in="composite1"
         values="1"
         type="saturate"
         result="colormatrix1" /><feFlood
         id="feFlood1195"
         flood-opacity="1"
         flood-color="rgb(242,163,211)"
         result="flood1" /><feBlend
         in2="colormatrix1"
         id="feBlend1197"
         in="flood1"
         mode="multiply"
         result="blend1" /><feBlend
         in2="blend1"
         id="feBlend1199"
         mode="screen"
         result="blend2" /><feColorMatrix
         id="feColorMatrix1201"
         in="blend2"
         values="1"
         type="saturate"
         result="colormatrix2" /><feComposite
         in2="fbSourceGraphic"
         id="feComposite1203"
         in="colormatrix2"
         operator="in"
         k2="1"
         result="composite2" /></filter><clipPath
       clipPathUnits="userSpaceOnUse"
       id="clipPath5779"><path
         id="path5781"
         style="stroke:#1c1c1c;stroke-width:3.07538;paint-order:stroke markers fill"
         d="M 158.76016,87.562092 A 53.770808,53.401307 0 0 1 104.98935,140.96339 53.770808,53.401307 0 0 1 51.218541,87.562092 53.770808,53.401307 0 0 1 104.98935,34.160783 53.770808,53.401307 0 0 1 158.76016,87.562092 Z" /></clipPath></defs><g
     inkscape:label="Camada 1"
     inkscape:groupmode="layer"
     id="layer1"><g
       id="g394"><path
         id="path4908"
         style="fill:#292b2c;fill-opacity:1;stroke:#000000;stroke-width:3.86654;stroke-dasharray:none"
         d="M 106.55872,30.81588 A 53.375682,53.006398 0 0 0 53.183417,83.821827 53.375682,53.006398 0 0 0 106.55872,136.82775 53.375682,53.006398 0 0 0 159.93407,83.821827 53.375682,53.006398 0 0 0 106.55872,30.81588 Z" /><g
         aria-label="Pierre"
         transform="translate(1.5691363,-3.7400921)"
         id="text1251"
         clip-path="url(#clipPath5779)"
         style="font-size:27.6934px;font-family:'Times New Roman';-inkscape-font-specification:'Times New Roman, ';fill:#ffffff;stroke:#1c1c1c;stroke-width:0.240817"
         inkscape:transform-center-x="-3.2797741"
         inkscape:transform-center-y="2.1775607"><path
           d="m 70.215369,51.22373 3.039538,4.392065 q 0.984964,1.423251 1.534846,1.552484 0.761109,0.196831 1.617284,-0.395686 l 0.578195,-0.400142 0.284717,0.411408 -6.460227,4.470814 -0.284716,-0.411409 0.567077,-0.392446 q 0.956247,-0.661773 0.936733,-1.569162 -0.01616,-0.498594 -0.908786,-1.788415 l -6.740848,-9.740376 q -0.984964,-1.423251 -1.523727,-1.560179 -0.772228,-0.189136 -1.628403,0.403381 l -0.567077,0.392447 -0.284716,-0.411409 5.526218,-3.824431 q 2.023685,-1.400496 3.483607,-1.785946 1.452227,-0.39657 2.937664,0.03899 1.485436,0.435562 2.42423,1.792099 1.277376,1.845779 0.854552,3.848624 -0.411704,1.99515 -2.635534,3.534156 -0.544838,0.377057 -1.232495,0.737839 -0.687657,0.360783 -1.518132,0.705292 z m -0.438617,-0.633791 q 0.666266,-0.296646 1.160626,-0.556546 0.49436,-0.259901 0.816816,-0.483057 1.156391,-0.800283 1.374725,-2.266942 0.221758,-1.485474 -0.763206,-2.908725 -0.677163,-0.978485 -1.65458,-1.535401 -0.985112,-0.568034 -2.003692,-0.47157 -1.026275,0.08534 -1.960284,0.731727 -0.567076,0.392446 -1.310403,1.219313 z"
           id="path292" /><path
           d="m 81.1773,33.686975 q 0.539144,-0.178521 1.038925,0.08332 0.508367,0.244751 0.686888,0.783894 0.178521,0.539144 -0.07907,1.051762 -0.244751,0.508367 -0.783895,0.686888 -0.539144,0.17852 -1.051761,-0.07907 -0.512618,-0.257588 -0.691139,-0.796732 -0.178521,-0.539144 0.07048,-1.034674 0.257588,-0.512618 0.809568,-0.695389 z m 3.101439,5.796015 3.128365,9.447853 q 0.365542,1.103961 0.642848,1.425221 0.285891,0.304172 0.65348,0.381875 0.380426,0.07345 1.214815,-0.20283 l 0.153018,0.462123 -5.712356,1.891471 -0.153018,-0.462123 q 0.860063,-0.284784 1.100052,-0.549423 0.239989,-0.264639 0.279352,-0.704998 0.0522,-0.44461 -0.309093,-1.535734 L 83.775777,45.10505 q -0.633324,-1.912677 -0.935876,-2.439239 -0.225874,-0.381023 -0.469431,-0.471307 -0.247808,-0.10312 -0.581563,0.0074 -0.35943,0.119014 -0.809142,0.481585 l -0.332733,-0.402617 3.066889,-2.610853 z"
           id="path294" /><path
           d="m 93.098198,42.582324 q 0.183024,2.752477 1.643546,4.220734 1.460523,1.468258 3.281378,1.338214 1.213903,-0.0867 2.056898,-0.811176 0.85552,-0.738931 1.34688,-2.400817 l 0.43738,0.239895 q -0.15127,1.868059 -1.40469,3.489474 -1.254378,1.607927 -3.304526,1.754347 -2.225489,0.158943 -3.940352,-1.453829 -1.702338,-1.627223 -1.911372,-4.554078 -0.226373,-3.169636 1.265974,-5.052134 1.504871,-1.89695 3.959653,-2.072268 2.077123,-0.148347 3.510673,1.132044 1.43258,1.266904 1.59634,3.559832 z m -0.05587,-0.782293 5.718832,-0.408435 q -0.152208,-1.182111 -0.402692,-1.652259 -0.391139,-0.731236 -1.096355,-1.114681 -0.691728,-0.384409 -1.42007,-0.332391 -1.119488,0.07995 -1.94707,1.020237 -0.815058,0.925834 -0.852645,2.487529 z"
           id="path296" /><path
           d="m 109.94247,38.209906 -0.55068,2.73059 q 2.07504,-2.423168 3.67893,-2.099706 0.72904,0.147028 1.11534,0.693945 0.38898,0.533661 0.27136,1.116894 -0.10426,0.516957 -0.52108,0.805345 -0.41681,0.288389 -0.894,0.192153 -0.46394,-0.09356 -0.95628,-0.661866 -0.47641,-0.578885 -0.75478,-0.635023 -0.23859,-0.04812 -0.57042,0.16085 -0.70609,0.423171 -1.59363,1.540853 l -1.17355,5.819074 q -0.20316,1.007402 -0.0556,1.57515 0.10014,0.392645 0.48945,0.719457 0.3893,0.326813 1.21113,0.492553 l -0.0962,0.477191 -6.21674,-1.253749 0.0962,-0.477191 q 0.92787,0.187127 1.43736,-0.0136 0.37416,-0.145254 0.60027,-0.582457 0.11172,-0.211974 0.32558,-1.272397 l 0.949,-4.70563 q 0.42772,-2.120847 0.41513,-2.537218 0.003,-0.426954 -0.19783,-0.660646 -0.18791,-0.231019 -0.53255,-0.300523 -0.41092,-0.08287 -0.96797,0.0117 l -0.0363,-0.503923 3.97112,-0.744105 z"
           id="path298" /><path
           d="m 121.55324,41.986979 -1.1752,2.525526 q 2.58508,-1.869466 4.06852,-1.179178 0.67429,0.313768 0.92168,0.935977 0.25309,0.60995 0.002,1.149383 -0.22249,0.478133 -0.69528,0.660822 -0.47278,0.182689 -0.91414,-0.02269 -0.42909,-0.19967 -0.77456,-0.867519 -0.3275,-0.674403 -0.58496,-0.794205 -0.22068,-0.102688 -0.59223,0.02271 -0.78559,0.245934 -1.91032,1.124525 l -2.50444,5.382067 q -0.43357,0.931748 -0.42312,1.518274 0.005,0.405179 0.30723,0.814116 0.30189,0.408938 1.062,0.762639 l -0.20537,0.441354 -5.74987,-2.675581 0.20538,-0.441354 q 0.85819,0.39934 1.40053,0.323589 0.39777,-0.05353 0.72004,-0.425581 0.15828,-0.179893 0.61467,-1.16068 l 2.02523,-4.352241 q 0.91278,-1.961573 0.9981,-2.369302 0.1033,-0.414284 -0.0375,-0.68861 -0.12855,-0.26862 -0.44731,-0.416947 -0.38005,-0.17685 -0.94376,-0.215443 l 0.0828,-0.498402 4.03492,0.207146 z"
           id="path300" /><path
           d="m 127.91561,51.496001 q -1.81474,2.077588 -1.81807,4.148553 -0.003,2.070964 1.3774,3.265123 0.92049,0.796105 2.02894,0.878763 1.12753,0.08128 2.64925,-0.747985 l 0.14014,0.478767 q -1.42663,1.215425 -3.45917,1.477738 -2.0237,0.252085 -3.57829,-1.092449 -1.68756,-1.459527 -1.76218,-3.812445 -0.0555,-2.354299 1.86395,-4.573691 2.07872,-2.403489 4.46481,-2.681832 2.40517,-0.279725 4.26659,1.330178 1.57505,1.362225 1.68533,3.281157 0.11913,1.908706 -1.38462,3.6474 z m 0.51304,-0.593201 4.33651,3.750542 q 0.72728,-0.944258 0.88208,-1.453982 0.23966,-0.793887 0.0113,-1.563451 -0.21809,-0.760719 -0.77038,-1.238383 -0.8489,-0.734186 -2.09888,-0.653202 -1.23092,0.0796 -2.36067,1.158476 z"
           id="path303" /></g><ellipse
         style="fill:#ffffff;fill-opacity:1;stroke:#000000;stroke-width:2.42875;stroke-dasharray:none"
         id="path4374"
         cx="-133.48766"
         cy="5.4718513"
         rx="39.416512"
         ry="40.136417"
         transform="rotate(-135.45507)" /><g
         id="g2006"
         transform="matrix(2.908685,0,0,2.908685,-72.585343,-244.94964)"><g
           id="g216"
           transform="translate(-5.5320992,10.690969)"><path
             style="fill:#d3cec6;fill-opacity:1;stroke:#000000;stroke-width:0.175"
             d="m 56.182499,103.73786 c -0.661882,-0.61488 -1.299567,-1.47656 -2.121429,-0.45964 -0.861994,1.52483 -0.904552,3.03421 0,4.52571 l 1.343573,0.91928 c -0.06176,0.34672 0.137339,0.63853 0.388926,0.91929 -0.480455,0.42112 0.294441,0.9319 0.671788,1.41429 2.348249,2.5764 5.882787,4.20377 8.839285,6.29357 l 2.687142,-2.58107 c 2.315246,-1.58195 4.721867,-3.11278 5.126787,-5.76322 -0.594433,-3.83666 -1.87393,-3.24697 -2.970002,-4.82625 l 1.09733,-3.55609 -12.906615,-0.739801 z"
             id="path302"
             sodipodi:nodetypes="ccccccccccccc" /><path
             style="fill:#000000;fill-opacity:1;stroke:#000000;stroke-width:0.179756"
             d="m 60.104695,114.0273 4.367706,-0.18941 0.887723,-1.81866 1.054169,2.10393 1.70147,0.39225 -2.811121,2.83495 z"
             id="path1113"
             sodipodi:nodetypes="ccccccc" /><g
             id="g2489"
             transform="translate(-7.6633436,-15.400786)" /></g><path
           style="fill:none;stroke:#000000;stroke-width:0.221705;stroke-dasharray:none"
           d="m 53.29622,118.28862 0.569419,-0.57698 v 0.28763 l 0.755953,1.18907 0.932674,1.07575 c 0.309829,0.42048 0.849327,0.68361 1.315552,0.8704 0.470307,0.31762 0.956544,0.44483 1.453002,0.44985 l 0.56942,-0.27382 c 0.524386,-0.49586 0.750086,-0.95213 1.040665,-1.50606 0.2517,0.49194 0.01839,0.85838 0.805039,1.60386 0.294528,0.23347 0.81486,0.0749 1.109388,0 0.568753,-0.30625 1.066252,-0.76027 1.453003,-1.14423 0.725049,-0.7302 1.119399,-1.37239 1.678806,-2.10259 l 0.214592,-0.54182 -0.04729,-0.55283 0.469271,0.55283"
           id="path428"
           sodipodi:nodetypes="cccccccccccccccc" /><path
           style="fill:none;stroke:#000000;stroke-width:0.3;stroke-dasharray:none"
           d="m 53.367696,117.45882 c 0.01312,-0.3642 0.09824,-0.62872 0.304354,-0.88392 l 0.734261,-0.0266"
           id="path1163"
           sodipodi:nodetypes="ccc" /><path
           style="fill:none;stroke:#000000;stroke-width:0.37343;stroke-dasharray:none"
           d="m 65.897629,117.6894 c -0.01009,-0.43705 0.108104,-0.60315 -0.117748,-0.93455 -0.180424,-0.30749 -0.457478,-0.49169 -1.034549,-0.49882"
           id="path1645"
           sodipodi:nodetypes="ccc" /><g
           id="g2479"
           transform="translate(-8.4507698,-5.119327)"><path
             id="path2473"
             style="fill:#ffffff;fill-opacity:1;stroke:#000000;stroke-width:0.1"
             d="m 72.176159,123.8391 c -0.461308,0.46948 -1.174802,0.93002 -1.868958,0.99968 -1.781594,0.17879 -2.10355,-1.36754 -2.10355,-1.36754 0.448642,-0.61015 1.697824,-1.06347 1.953282,-1.01189 2.094411,-0.0337 2.791391,0.60238 2.791391,0.60238 5.7e-5,-3e-5 -0.224132,0.21962 -0.772165,0.77737 z"
             sodipodi:nodetypes="sscccs" /><ellipse
             style="fill:#000000;fill-opacity:1;stroke:#000000;stroke-width:0.1;stroke-dasharray:none"
             id="ellipse2475"
             cx="70.566734"
             cy="123.22363"
             rx="0.96348214"
             ry="0.76901788" /><path
             id="path2477"
             style="fill:#d3cec6;fill-opacity:1;stroke:#000000;stroke-width:0.223763"
             d="m 73.293529,120.85459 c 0.07318,0.99143 -0.345205,2.20714 -0.345205,2.20714 -1.486892,-0.19653 -1.676864,-0.66719 -4.644566,0.46927 -0.802792,-0.37589 -0.692653,-2.64005 -0.704773,-2.67641 -0.118482,-1.99078 1.23412,-3.30954 2.77763,-3.59689 1.217671,-0.22669 2.773716,0.34669 2.916914,3.59689 z"
             sodipodi:nodetypes="ccccsc" /></g><g
           id="g2471"
           transform="translate(-13.195443,-4.709817)"><path
             id="path912"
             style="fill:#ffffff;fill-opacity:1;stroke:#000000;stroke-width:0.1"
             d="m 72.176159,123.8391 c -0.461308,0.46948 -1.174802,0.93002 -1.868958,0.99968 -1.781594,0.17879 -2.10355,-1.36754 -2.10355,-1.36754 0.448642,-0.61015 1.697824,-1.06347 1.953282,-1.01189 2.094411,-0.0337 2.791391,0.60238 2.791391,0.60238 5.7e-5,-3e-5 -0.224132,0.21962 -0.772165,0.77737 z"
             sodipodi:nodetypes="sscccs" /><ellipse
             style="fill:#000000;fill-opacity:1;stroke:#000000;stroke-width:0.1;stroke-dasharray:none"
             id="ellipse2466"
             cx="70.566734"
             cy="123.22363"
             rx="0.96348214"
             ry="0.76901788" /><path
             id="path1169"
             style="fill:#d3cec6;fill-opacity:1;stroke:#000000;stroke-width:0.223763"
             d="m 73.293529,120.85459 c 0.07318,0.99143 -0.345205,2.20714 -0.345205,2.20714 -1.486892,-0.19653 -1.676864,-0.66719 -4.644566,0.46927 -0.802792,-0.37589 -0.692653,-2.64005 -0.704773,-2.67641 -0.118482,-1.99078 1.23412,-3.30954 2.77763,-3.59689 1.217671,-0.22669 2.773716,0.34669 2.916914,3.59689 z"
             sodipodi:nodetypes="ccccsc" /><g
             id="g4140"
             transform="translate(-44.113117,15.531144)"><path
               id="path3652"
               style="fill:#292b2c;stroke:#000000;stroke-width:0.1;stroke-dasharray:none"
               inkscape:transform-center-x="0.025652343"
               inkscape:transform-center-y="-0.02651913"
               d="m 111.1717,101.51097 1.4921,-1.0176 c 1.49889,1.04224 4.41416,3.22808 4.41416,3.22808 z"
               sodipodi:nodetypes="cccc" /><path
               id="path4136"
               style="fill:#292b2c;stroke:#000000;stroke-width:0.1;stroke-dasharray:none"
               inkscape:transform-center-x="-0.025647657"
               inkscape:transform-center-y="-0.02651913"
               d="m 124.55595,100.49337 h -3.06718 c -1.49889,1.04224 -4.41416,3.22808 -4.41416,3.22808 z"
               sodipodi:nodetypes="cccc" /><path
               style="fill:#443d36;fill-opacity:1;stroke:#000000;stroke-width:0.175"
               d="m 54.962677,102.48268 c -1.013905,-3.755006 -0.379052,-4.505375 -0.22982,-5.250535 0.361641,-1.431614 1.23792,-2.141585 1.96232,-2.203128 0.175486,-0.141486 3.51112,-0.418866 6.205179,-0.238662 2.828366,0.414172 5.586633,1.155476 8.273571,2.229647 3.357337,1.468309 3.798057,2.166677 4.066067,2.510357 0.47079,0.43607 0.7276,1.048931 0.26518,1.485001 -0.44333,0.1776 -0.87352,0.46036 -1.36125,0.28286 -1.703849,-0.0219 -3.357184,-0.003 -5.515712,-0.38893 l -10.288928,-1.025361 -0.03536,7.142141 -2.156785,0.54866 -0.07072,-4.15509 z"
               id="path566"
               sodipodi:nodetypes="cccccccccccccc"
               transform="translate(51.77646,-0.130358)" /><ellipse
               style="fill:#aaa9a9;fill-opacity:1;stroke:#000000;stroke-width:0.121698;stroke-dasharray:none"
               id="path2491"
               cx="65.267014"
               cy="108.43832"
               rx="0.75419557"
               ry="0.67461449"
               transform="translate(51.77646,-0.130358)" /></g></g><path
           style="fill:#292b2c;fill-opacity:1;stroke:#000000;stroke-width:0.1;stroke-dasharray:none"
           d="m 47.524797,123.28392 c 3.92562,-1.09615 7.85018,-2.21792 11.78719,-3.04071 h 1.18888 l 8.97018,2.94395 -0.082,0.24807 c -3.06057,-0.95005 -6.09615,-1.5382 -9.15672,-2.79389 l -0.40627,0.006 c -4.06066,1.04594 -8.68792,2.17881 -12.30131,2.63658 z"
           id="path4296"
           sodipodi:nodetypes="cccccccc" /></g><text
         xml:space="preserve"
         style="font-style:normal;font-variant:normal;font-weight:normal;font-stretch:normal;font-size:12.8809px;font-family:Arial;-inkscape-font-specification:Arial;fill:#ffffff;stroke:#1c1c1c;stroke-width:3.3876;stroke-dasharray:none;paint-order:stroke markers fill"
         x="48.813828"
         y="168.47543"
         id="text5312"><tspan
           sodipodi:role="line"
           id="tspan5310"
           style="font-style:normal;font-variant:normal;font-weight:normal;font-stretch:normal;font-family:Arial;-inkscape-font-specification:Arial;stroke-width:3.38757"
           x="48.813828"
           y="168.47543">Rafael de Almeida</tspan></text></g></g></svg>
